<?xml version="1.0" encoding="utf-8"?>
<!-- Generator: Adobe Illustrator 16.0.3, SVG Export Plug-In . SVG Version: 6.00 Build 0)  -->
<!DOCTYPE svg PUBLIC "-//W3C//DTD SVG 1.1//EN" "http://www.w3.org/Graphics/SVG/1.1/DTD/svg11.dtd">
<svg version="1.1" id="レイヤー_1" xmlns="http://www.w3.org/2000/svg" xmlns:xlink="http://www.w3.org/1999/xlink" x="0px"
	 y="0px" width="3135px" height="605.79px" viewBox="0 0 3135 605.79" enable-background="new 0 0 3135 605.79"
	 xml:space="preserve">
<path id="e" fill="none" stroke="#FFFFFF" stroke-width="20" stroke-linecap="square" stroke-miterlimit="10" d="M3077,455.145h-125
	c-69.035,0-125-55.965-125-125s55.965-125,125-125s125,55.965,125,125h-250"/>
<path id="s" fill="none" stroke="#FFFFFF" stroke-width="20" stroke-linecap="square" stroke-miterlimit="10" d="M2527,455.145h125
	c69.035,0,125,0,125-62.5s-54.965-62.5-124-62.5s-126,0-126-62.5s55.965-62.5,125-62.5h125"/>
<path id="u2" fill="none" stroke="#FFFFFF" stroke-width="20" stroke-linecap="square" stroke-miterlimit="10" d="M2477,205.145v250
	h-150c-69.035,0-100-55.965-100-125v-125"/>
<circle id="o" fill="none" stroke="#FFFFFF" stroke-width="20" stroke-linecap="square" stroke-miterlimit="10" cx="2039.5" cy="330.145" r="137.5"/>
<path id="m" fill="none" stroke="#FFFFFF" stroke-width="20" stroke-linecap="square" stroke-miterlimit="10" d="M1539.5,455.145
	v-125c0-125,0-125,56.25-125h100h75c43.146,0,81.25,55.965,81.25,125v125 M1695.75,205.145v250"/>
<path id="p" fill="none" stroke="#FFFFFF" stroke-width="20" stroke-linecap="square" stroke-miterlimit="10" d="M1239.5,455.145
	h150c69.036,0,100-55.965,100-125s-30.964-125-100-125h-150v350"/>
<path id="u1" fill="none" stroke="#FFFFFF" stroke-width="20" stroke-linecap="square" stroke-miterlimit="10" d="M1164.5,205.145
	v250h-150c-69.035,0-100-55.965-100-125v-125"/>
<path id="C_1_" fill="none" stroke="#FFFFFF" stroke-width="20" stroke-linecap="square" stroke-miterlimit="10" d="
	M858.832,205.151C837.375,116.492,757.502,50.645,662.25,50.645c-111.7,0-202.25,90.551-202.25,202.251
	c0,111.698,90.55,202.249,202.25,202.249h223.68"/>
<g>
	<path fill="#FFFFFF" d="M200.2,328.145c0,25.436-8.635,44.335-25.9,56.7c-17.27,12.37-44.8,18.55-82.6,18.55h-63v-255.5h59.5
		c35.93,0,61.83,5.021,77.7,15.05c15.865,10.035,23.8,25.436,23.8,46.2c0,13.771-4.785,25.67-14.35,35.7
		c-9.57,10.035-22.285,16.685-38.15,19.95v0.699c20.064,3.035,35.58,10.035,46.55,21C194.715,297.465,200.2,311.345,200.2,328.145z
		 M67.2,252.195h14c26.129,0,44.74-3.09,55.825-9.275c11.08-6.18,16.625-15.69,16.625-28.525c0-12.6-4.435-21.7-13.3-27.3
		c-8.871-5.6-23.92-8.4-45.15-8.4h-28V252.195z M162.4,324.645c0-14.93-6.07-25.725-18.2-32.375c-12.135-6.65-33.135-9.975-63-9.975
		h-14v90.3h31.5c22.165,0,38.325-3.851,48.475-11.55C157.325,353.345,162.4,341.215,162.4,324.645z"/>
	<path fill="#FFFFFF" d="M265.298,221.395l50.4,140h0.7l46.9-140h37.8l-68.25,182c-11.9,31.729-24.91,53.08-39.025,64.05
		c-14.12,10.965-34.945,16.45-62.475,16.45v-28.7c19.365,0,33.305-3.271,41.825-9.8c8.515-6.535,16.74-20.535,24.675-42l-71.75-182
		H265.298z"/>
</g>
<g>
</g>
<g>
</g>
<g>
</g>
<g>
</g>
<g>
</g>
<g>
</g>
</svg>
